# xmcd
#
# Track frame offsets:
#	150
#	13270
#	26911
#	41527
#	55102
#	69733
#	83251
#	95539
#	107455
#	120838
#	134335
#	147973
#	160378
#	172789
#	185719
#	198862
#	214006
#	230203
#	243013
#	256513
#	268663
#	280774
#	291835
#	307642
#	322054
#
# Disc length: 4493 seconds
#
# Revision: 4
# Processed by: cddbd v1.5.2PL0 Copyright (c) Steve Scherf et al.
# Submitted via: EZCDAudioConverter 7.0.9.1
#
DISCID=56118b19
DTITLE=Various Artist - Triomphes du Blues 8, Blues Stylists
DYEAR=2001
DGENRE=Blues
TTITLE0=Lonnie Johnson - Mean old bedbug blues - 1927
TTITLE1=Lonnie Johnson - Have to change keys (To play these blues) - 1928
TTITLE2=Lonnie Johnson - Guitar blues - 1929
TTITLE3=Lonnie Johnson - Playing with the strings - 1928
TTITLE4=Lonnie Johnson - No more trouble now - 1928
TTITLE5=Lonnie Johnson - 6 88 Glide - 1927
TTITLE6=Lonnie Johnson - Flood water - 1937
TTITLE7=Lonnie Johnson - Swing out rhythm - 1937
TTITLE8=Lonnie Johnson - Hot springs blues (Skin and bones) - 1938
TTITLE9=Lonnie Johnson - I'm not rough (avec Louis Armstrong and His Hot Five) -
TTITLE9=1927
TTITLE10=Blind Blake - Blind Arthur breakdown - 1929
TTITLE11=Blind Blake - You're gonna quit me baby - 1927
TTITLE12=Blind Blake - Dry bone shuffle - 1927
TTITLE13=Blind Blake - Southern rag - 1927
TTITLE14=Blind Blake - Too tight blues - 1926
TTITLE15=Blind Blake - Georgia bound - 1929
TTITLE16=Blind Blake - Depression 's gone from me blues - 1932
TTITLE17=Blind Blake - Police dog blues - 1929
TTITLE18=Scrapper Blackwell - A blues - 1935
TTITLE19=Scrapper Blackwell - D blues - 1935
TTITLE20=B.B. King - Miss Martha King - 1949
TTITLE21=B.B. King - When your baby packs up - 1949
TTITLE22=B.B. King - The other night blues - 1950
TTITLE23=B.B. King - B.B.'s boogie - 1950
TTITLE24=B.B. King - Walking and crying - 1950
EXTD=
EXTT0=
EXTT1=
EXTT2=
EXTT3=
EXTT4=
EXTT5=
EXTT6=
EXTT7=
EXTT8=
EXTT9=
EXTT10=
EXTT11=
EXTT12=
EXTT13=
EXTT14=
EXTT15=
EXTT16=
EXTT17=
EXTT18=
EXTT19=
EXTT20=
EXTT21=
EXTT22=
EXTT23=
EXTT24=
PLAYORDER=
